<svg width="228" height="228" viewBox="0 0 228 228" fill="none" xmlns="http://www.w3.org/2000/svg">
<circle cx="114" cy="114" r="114" fill="#1FCBD6"/>
<path fill-rule="evenodd" clip-rule="evenodd" d="M122.679 227.675L52 156L176.5 51.5L226.948 129.552C220.259 178.592 182.381 217.708 133.958 226.259L130.096 226.872C127.648 227.218 125.175 227.487 122.679 227.675Z" fill="url(#paint0_linear_5_1176)" fill-opacity="0.2"/>
<path d="M178 155.706V50.9639H176.036L116.464 71.9123V178.619L178 155.706Z" fill="#F7F0FA"/>
<path d="M52.3093 155.706V50.9639H54.2732L113.845 71.9123V178.619L52.3093 155.706Z" fill="#F7F0FA"/>
<path d="M115.165 71.7436L175.319 49.9703C176.623 49.4983 178 50.4642 178 51.8509V155.304C178 156.146 177.473 156.898 176.681 157.184L116.526 178.958C115.222 179.429 113.845 178.464 113.845 177.077V73.6242C113.845 72.7821 114.373 72.0302 115.165 71.7436Z" stroke="black" stroke-width="3"/>
<path d="M113.835 71.7436L53.6807 49.9703C52.3768 49.4983 51 50.4642 51 51.8509V155.304C51 156.146 51.5275 156.898 52.3193 157.184L112.474 178.958C113.778 179.429 115.155 178.464 115.155 177.077V73.6242C115.155 72.7821 114.627 72.0302 113.835 71.7436Z" stroke="black" stroke-width="3"/>
<path d="M104.463 149.88C104.469 150.547 104.505 151.158 104.572 151.715C104.717 154.161 104.794 156.017 104.805 157.284C104.814 158.484 104.728 159.349 104.545 159.88C104.425 160.367 104.177 160.575 103.802 160.503C103.427 160.364 102.895 160.168 102.207 159.914C101.519 159.594 100.612 159.259 99.4864 158.911C98.4236 158.585 96.5791 157.971 93.9527 157.069C91.3888 156.189 87.824 154.907 83.2581 153.223C78.7548 151.562 72.7186 149.268 65.1494 146.343L65.1346 144.543C65.2812 139.612 65.4007 135.17 65.493 131.216C65.5847 127.196 65.6164 123.453 65.5879 119.986C65.6215 116.476 65.6249 113.088 65.5981 109.821C65.5713 106.554 65.5127 103.21 65.4222 99.7867C65.3318 96.3638 65.2397 92.7408 65.146 88.9178C65.0517 85.0282 64.9542 80.7386 64.8534 76.0491C65.4766 76.0131 66.4445 76.1708 67.7568 76.522C69.0687 76.8066 70.4751 77.2258 71.9762 77.7796C73.4773 78.3334 74.948 78.9756 76.3882 79.7063C77.8284 80.437 78.988 81.1639 79.8669 81.8869C79.7773 86.174 79.7514 90.6174 79.7892 95.2172C79.8889 99.7735 79.9889 104.363 80.0892 108.986C80.1895 113.609 80.2585 118.22 80.2962 122.82C80.3959 127.376 80.432 131.776 80.4045 136.02L80.4053 136.12C80.842 136.148 81.6549 136.415 82.8438 136.92C84.0947 137.381 85.5335 137.945 87.1603 138.612C88.787 139.278 90.5079 140.013 92.3228 140.815C94.1997 141.574 95.9516 142.287 97.5783 142.954C99.2676 143.643 100.738 144.252 101.989 144.78C103.303 145.265 104.21 145.566 104.709 145.684C104.715 146.417 104.69 147.139 104.634 147.849C104.577 148.493 104.52 149.17 104.463 149.88Z" fill="#1FCBD6"/>
<path d="M161.469 73.6378C162.658 73.1994 163.721 72.8405 164.66 72.561L167.767 141.624C166.706 142.216 165.55 142.777 164.299 143.305C163.111 143.81 161.923 144.282 160.735 144.72C159.609 145.135 158.483 145.551 157.358 145.966C156.294 146.358 155.388 146.726 154.638 147.07L154.544 147.104C154.213 145.02 153.975 142.834 153.831 140.547C153.749 138.17 153.667 135.827 153.585 133.516C153.566 131.183 153.516 128.861 153.434 126.551C153.352 124.241 153.178 122.065 152.91 120.025L152.815 119.959C150.999 120.295 149.184 120.797 147.37 121.467C145.556 122.136 143.744 123.038 141.934 124.174C141.766 126.577 141.691 128.911 141.709 131.178C141.79 133.421 141.871 135.665 141.953 137.908C142.034 140.152 142.052 142.385 142.008 144.608C142.025 146.741 141.886 148.932 141.591 151.181C140.844 151.924 139.845 152.527 138.595 152.988C137.344 153.45 136.092 153.845 134.84 154.173C133.588 154.501 132.399 154.839 131.273 155.188C130.209 155.514 129.397 155.947 128.836 156.488C128.696 154.668 128.519 152.192 128.305 149.061C128.153 145.841 127.998 142.254 127.84 138.3C127.682 134.28 127.522 130.026 127.359 125.539C127.26 121.029 127.16 116.519 127.06 112.009C126.96 107.432 126.892 103.044 126.858 98.8438C126.886 94.5542 126.917 90.6979 126.951 87.2749L126.95 87.1749L127.044 87.1403L127.232 87.0711C128.172 86.925 129.142 86.634 130.142 86.1981C131.205 85.7392 132.236 85.2918 133.236 84.8559C134.299 84.397 135.331 83.9829 136.332 83.6138C137.332 83.2446 138.272 83.0318 139.149 82.9754C139.75 87.3676 140.068 91.7302 140.104 96.0634C140.139 100.397 140.55 104.558 141.335 108.548L141.429 108.513C142.996 108.336 144.686 107.846 146.499 107.044C148.311 106.175 149.998 105.385 151.561 104.675L151.655 104.64C151.992 99.9021 152.145 95.533 152.112 91.5331C152.141 87.5102 152.043 83.1334 151.816 78.4028C152.564 77.8593 153.469 77.2913 154.531 76.6991C155.655 76.0838 156.811 75.5235 157.999 75.0185C159.186 74.4467 160.343 73.9865 161.469 73.6378Z" fill="#1FCBD6"/>
<defs>
<linearGradient id="paint0_linear_5_1176" x1="99.7366" y1="54.2561" x2="212.602" y2="213.904" gradientUnits="userSpaceOnUse">
<stop offset="0.255208"/>
<stop offset="0.890625" stop-color="#92D1FF"/>
</linearGradient>
</defs>
</svg>
